<?xml version="1.0" encoding="UTF-8" standalone="no"?>
<!-- Created with Inkscape (http://www.inkscape.org/) -->

<svg
   width="72"
   height="48"
   viewBox="0 0 19.049999 12.7"
   version="1.1"
   id="svg925"
   inkscape:version="1.3 (1:1.3+202307231459+0e150ed6c4)"
   sodipodi:docname="banners_2.svg"
   inkscape:export-filename="../lliurex-flavours-selector/data-files/banners/lliurex-meta-desktop-lite.png"
   inkscape:export-xdpi="96"
   inkscape:export-ydpi="96"
   xmlns:inkscape="http://www.inkscape.org/namespaces/inkscape"
   xmlns:sodipodi="http://sodipodi.sourceforge.net/DTD/sodipodi-0.dtd"
   xmlns="http://www.w3.org/2000/svg"
   xmlns:svg="http://www.w3.org/2000/svg">
  <sodipodi:namedview
     id="namedview927"
     pagecolor="#ffffff"
     bordercolor="#000000"
     borderopacity="0.25"
     inkscape:showpageshadow="2"
     inkscape:pageopacity="0.0"
     inkscape:pagecheckerboard="0"
     inkscape:deskcolor="#d1d1d1"
     inkscape:document-units="mm"
     showgrid="false"
     inkscape:zoom="1.3238075"
     inkscape:cx="122.75199"
     inkscape:cy="147.30238"
     inkscape:window-width="1920"
     inkscape:window-height="882"
     inkscape:window-x="0"
     inkscape:window-y="0"
     inkscape:window-maximized="1"
     inkscape:current-layer="layer1" />
  <defs
     id="defs922">
    <filter
       inkscape:collect="always"
       style="color-interpolation-filters:sRGB"
       id="filter6870"
       x="-0.020738448"
       width="1.0414769"
       y="-0.13631516"
       height="1.2726303">
      <feGaussianBlur
         inkscape:collect="always"
         stdDeviation="0.12461591"
         id="feGaussianBlur6872" />
    </filter>
  </defs>
  <g
     inkscape:label="Capa 1"
     inkscape:groupmode="layer"
     id="layer1">
    <rect
       style="fill:#ffffff;stroke-width:0.264583;fill-opacity:1"
       id="rect1762"
       width="19.049999"
       height="12.7"
       x="3.814697e-07"
       y="9.5367426e-08" />
    <rect
       style="fill:#ffffff;fill-opacity:1;stroke-width:0.264583"
       id="rect1762-9"
       width="19.049999"
       height="12.7"
       x="22.253601"
       y="1.4447511" />
    <rect
       style="fill:#ffdd55;fill-opacity:1;stroke-width:0.264583"
       id="rect1762-70"
       width="19.049999"
       height="12.7"
       x="85.824074"
       y="33.541885" />
    <rect
       style="fill:#800080;fill-opacity:1;stroke-width:0.264583"
       id="rect1762-2"
       width="19.049999"
       height="12.7"
       x="81.605042"
       y="13.220415" />
    <rect
       style="fill:#999999;fill-opacity:1;stroke-width:0.264583"
       id="rect1762-1"
       width="19.049999"
       height="12.7"
       x="63.105778"
       y="45.188732" />
    <rect
       style="fill:#000000;fill-opacity:1;stroke-width:0.264583"
       id="rect1762-62"
       width="19.049999"
       height="12.7"
       x="26.702948"
       y="45.34956" />
    <rect
       style="fill:#49caf2;fill-opacity:1;stroke-width:0.264583"
       id="rect1762-35"
       width="19.049999"
       height="12.7"
       x="-6.9173789"
       y="45.046638" />
    <rect
       style="fill:#5a8bed;fill-opacity:1;stroke-width:0.264583"
       id="rect1762-5"
       width="19.049999"
       height="12.7"
       x="53.300659"
       y="23.261311" />
    <rect
       style="fill:#f9a12d;fill-opacity:1;stroke-width:0.264583"
       id="rect1762-7"
       width="19.049999"
       height="12.7"
       x="-6.1272874"
       y="20.831696" />
    <rect
       style="fill:#eb3475;fill-opacity:1;stroke-width:0.264583"
       id="rect1762-6"
       width="19.049999"
       height="12.7"
       x="52.433277"
       y="3.8431361" />
    <rect
       style="fill:#00854a;fill-opacity:1;stroke-width:0.264583"
       id="rect1762-3"
       width="19.049999"
       height="12.7"
       x="3.8146973e-07"
       y="9.5367426e-08" />
    <g
       transform="matrix(1.144578,0,0,1.144578,-0.20076878,-319.22337)"
       id="g1491">
      <path
         style="fill:#000000;fill-opacity:1;stroke-width:0.576296;filter:url(#filter6870)"
         d="m 5.2986391,283.35138 c -0.099203,0 -0.1795551,0.0803 -0.1795551,0.17959 v 2.2e-4 1.19286 2.4e-4 c 0,0.0991 0.080345,0.17959 0.1795551,0.17959 0.099201,0 0.1797109,-0.0805 0.1797109,-0.17959 0,-1.4e-4 -1.408e-4,-2.2e-4 -1.408e-4,-2.4e-4 v -1.19286 c 0,-1.4e-4 1.408e-4,-1.4e-4 1.408e-4,-2.2e-4 0,-0.0992 -0.080506,-0.17959 -0.1797109,-0.17959 z m 8.3835739,0.35879 c -0.05177,3.8e-4 -0.102894,0.0234 -0.137934,0.0664 -0.0624,0.0768 -0.05049,0.19023 0.02655,0.25275 l 0.6846,0.55421 -0.749695,0.60686 c -0.07711,0.0624 -0.08904,0.17548 -0.02661,0.25258 0.03555,0.0435 0.08733,0.0664 0.139717,0.0664 0.03969,0 0.07961,-0.0131 0.112894,-0.0401 l 0.841873,-0.68162 0.84177,0.68162 c 0.03331,0.0271 0.07326,0.0401 0.11289,0.0401 0.05242,0 0.104278,-0.0228 0.139755,-0.0664 0.06236,-0.0767 0.05037,-0.19026 -0.0266,-0.25258 l -0.749744,-0.60686 0.684601,-0.55421 c 0.07706,-0.0624 0.08894,-0.17558 0.02657,-0.25275 -0.06226,-0.0766 -0.175419,-0.0896 -0.252548,-0.0267 l -0.776675,0.62871 -0.776776,-0.6287 c -0.03377,-0.0276 -0.07437,-0.0408 -0.114614,-0.0403 z m -12.2160184,0.003 c -0.099203,0 -0.1796587,0.0804 -0.1796587,0.17977 0,8.7e-4 3.379e-4,0.002 3.379e-4,0.003 h -3.379e-4 v 0.7947 c 0,0.44958 0.3656624,0.8153 0.815052,0.8153 h 0.6912909 c 3.374e-4,0 3.374e-4,5e-5 6.019e-4,5e-5 0.099202,0 0.1796599,-0.0802 0.1796599,-0.17965 -4.06e-5,-0.0992 -0.080448,-0.1796 -0.1796599,-0.1796 h -5.09e-5 -0.6918652 c -0.2513608,0 -0.4558392,-0.20467 -0.4558392,-0.4561 v -0.7947 h -5.232e-4 c 6.63e-5,-8.9e-4 5.232e-4,-0.002 5.232e-4,-0.003 0,-0.0993 -0.080346,-0.17977 -0.1795543,-0.17977 z m 1.8057385,0 c -0.099203,0 -0.1797098,0.0804 -0.1797098,0.17977 0,8.7e-4 3.383e-4,0.002 3.383e-4,0.003 h -3.383e-4 v 0.7947 c 0,0.44958 0.3656824,0.8153 0.8151562,0.8153 h 0.6911847 c 3.389e-4,0 5.225e-4,5e-5 6.028e-4,5e-5 0.099203,0 0.1795556,-0.0802 0.1795556,-0.17965 -3.53e-5,-0.0991 -0.080282,-0.17951 -0.1794492,-0.1796 H 3.9074076 c -0.2514037,0 -0.4558398,-0.20467 -0.4558398,-0.4561 v -0.7947 h -5.239e-4 c 7.46e-5,-8.9e-4 5.239e-4,-0.002 5.239e-4,-0.003 0,-0.0993 -0.080368,-0.17977 -0.1796588,-0.17977 z m 2.8052094,0 c -0.099204,0 -0.1796072,0.0804 -0.1796072,0.17977 0,8.7e-4 3.385e-4,0.002 3.385e-4,0.003 h -3.385e-4 v 0.79475 c 0,0.44957 0.365674,0.81525 0.8151064,0.81525 h 0.615002 c 0.4494735,0 0.8150526,-0.36568 0.8150526,-0.81525 v -0.79477 h -3.377e-4 c 6.71e-5,-9e-4 3.377e-4,-0.002 3.377e-4,-0.003 h 5.35e-5 c 0,-0.0993 -0.080401,-0.17977 -0.1796069,-0.17977 -0.099202,0 -0.1796587,0.0804 -0.1796587,0.17977 0,8.7e-4 3.378e-4,0.002 3.378e-4,0.003 h -3.378e-4 v 0.79474 c 0,0.25143 -0.2044792,0.45605 -0.4558396,0.45605 H 6.7126931 c -0.2513596,0 -0.4559441,-0.20462 -0.4559441,-0.45605 v -0.79474 h -3.383e-4 c 0,-9e-4 3.383e-4,-0.002 3.383e-4,-0.003 0,-0.0993 -0.080402,-0.17977 -0.1796065,-0.17977 z m 2.616713,0 c -0.099288,0 -0.1797102,0.0804 -0.1797102,0.17977 v 1.8e-4 1.43338 2.3e-4 c 0,0.0991 0.08042,0.17977 0.1797102,0.17977 0.099161,0 0.1795221,-0.0805 0.1796074,-0.17968 v -0.44866 h 1.2006691 c 0.123626,0 0.303215,0.0874 0.303215,0.22325 v 0.22463 8e-4 c 0,0.0993 0.08036,0.17977 0.179601,0.17977 0.09921,0 0.179526,-0.0804 0.179616,-0.17966 v -0.22541 c 0,-0.15686 -0.05551,-0.30855 -0.189081,-0.38977 0.112232,-0.0877 0.189187,-0.25314 0.189187,-0.41584 0,-0.34304 -0.239558,-0.58249 -0.582534,-0.58249 H 8.6941693 Z m 4.3637855,5e-5 c -2e-4,0 -3.4e-4,2.2e-4 -3.4e-4,2.2e-4 h -1.144043 c -0.449392,0 -0.814994,0.36555 -0.814994,0.81495 v 0.16295 c 0,0.44946 0.365646,0.81517 0.814994,0.81517 h 1.143682 c 1.97e-4,0 5.24e-4,6e-5 6.04e-4,6e-5 0.0992,0 0.179604,-0.0802 0.179604,-0.17965 -5.8e-5,-0.0992 -0.0804,-0.17959 -0.179652,-0.17959 v -7e-5 h -1.144363 c -0.21768,0 -0.399864,-0.15359 -0.444859,-0.35791 h 1.407992 c 3.39e-4,0 5.18e-4,2.2e-4 8.06e-4,2.2e-4 0.09916,0 0.179555,-0.0804 0.179555,-0.17977 0,-0.0993 -0.08036,-0.17963 -0.179555,-0.17963 h -1.29e-4 -1.408571 c 0.04499,-0.20434 0.227185,-0.3577 0.444872,-0.3577 h 1.144043 3.38e-4 c 0.0992,0 0.179553,-0.0804 0.179553,-0.17948 0,-0.0993 -0.0803,-0.17978 -0.179553,-0.17978 z m -4.184126,0.3592 h 1.280567 c 0.08345,0 0.223316,0.0294 0.223316,0.22335 0,0.12311 -0.100196,0.22322 -0.223316,0.22322 H 8.873515 Z m -3.5698049,1.04209 c -0.1188931,0 -0.2154227,0.0964 -0.2154227,0.21537 0,0.11917 0.096528,0.21552 0.2154227,0.21552 0.1189786,0 0.2154222,-0.0962 0.2154222,-0.21552 0,-0.11891 -0.0964,-0.21537 -0.2154222,-0.21537 z"
         id="path6860"
         inkscape:connector-curvature="0" />
      <path
         inkscape:connector-curvature="0"
         id="path2"
         d="m 5.2669748,283.19308 c -0.099203,0 -0.1795551,0.0803 -0.1795551,0.17959 v 2.2e-4 1.19286 2.4e-4 c 0,0.0991 0.080345,0.17959 0.1795551,0.17959 0.099201,0 0.1797109,-0.0805 0.1797109,-0.17959 0,-1.4e-4 -1.408e-4,-2.2e-4 -1.408e-4,-2.4e-4 v -1.19286 c 0,-1.4e-4 1.408e-4,-1.4e-4 1.408e-4,-2.2e-4 0,-0.0992 -0.080506,-0.17959 -0.1797109,-0.17959 z m 8.3835742,0.35879 c -0.05177,3.8e-4 -0.102894,0.0234 -0.137934,0.0664 -0.0624,0.0768 -0.05049,0.19023 0.02655,0.25275 l 0.6846,0.55421 -0.749695,0.60686 c -0.07711,0.0624 -0.08904,0.17548 -0.02661,0.25258 0.03555,0.0435 0.08733,0.0664 0.139717,0.0664 0.03969,0 0.07961,-0.0131 0.112894,-0.0401 l 0.841873,-0.68162 0.84177,0.68162 c 0.03331,0.0271 0.07326,0.0401 0.11289,0.0401 0.05242,0 0.104278,-0.0228 0.139755,-0.0664 0.06236,-0.0767 0.05037,-0.19026 -0.0266,-0.25258 l -0.749744,-0.60686 0.684601,-0.55421 c 0.07706,-0.0624 0.08894,-0.17558 0.02657,-0.25275 -0.06226,-0.0766 -0.175419,-0.0896 -0.252548,-0.0267 l -0.776675,0.62871 -0.776776,-0.6287 c -0.03377,-0.0276 -0.07437,-0.0408 -0.114614,-0.0403 z m -12.2160187,0.003 c -0.099203,0 -0.1796587,0.0804 -0.1796587,0.17977 0,8.7e-4 3.379e-4,0.002 3.379e-4,0.003 h -3.379e-4 v 0.7947 c 0,0.44958 0.3656624,0.8153 0.815052,0.8153 h 0.6912909 c 3.374e-4,0 3.374e-4,5e-5 6.019e-4,5e-5 0.099202,0 0.1796599,-0.0802 0.1796599,-0.17965 -4.06e-5,-0.0992 -0.080448,-0.1796 -0.1796599,-0.1796 h -5.09e-5 -0.6918652 c -0.2513608,0 -0.4558392,-0.20467 -0.4558392,-0.4561 v -0.7947 h -5.232e-4 c 6.63e-5,-8.9e-4 5.232e-4,-0.002 5.232e-4,-0.003 0,-0.0993 -0.080346,-0.17977 -0.1795543,-0.17977 z m 1.8057385,0 c -0.099203,0 -0.1797098,0.0804 -0.1797098,0.17977 0,8.7e-4 3.383e-4,0.002 3.383e-4,0.003 H 3.060559 v 0.7947 c 0,0.44958 0.3656824,0.8153 0.8151562,0.8153 h 0.6911847 c 3.389e-4,0 5.225e-4,5e-5 6.028e-4,5e-5 0.099203,0 0.1795556,-0.0802 0.1795556,-0.17965 -3.53e-5,-0.0991 -0.080282,-0.17951 -0.1794492,-0.1796 H 3.8757433 c -0.2514037,0 -0.4558398,-0.20467 -0.4558398,-0.4561 v -0.7947 h -5.239e-4 c 7.46e-5,-8.9e-4 5.239e-4,-0.002 5.239e-4,-0.003 0,-0.0993 -0.080368,-0.17977 -0.1796588,-0.17977 z m 2.8052094,0 c -0.099204,0 -0.1796072,0.0804 -0.1796072,0.17977 0,8.7e-4 3.385e-4,0.002 3.385e-4,0.003 H 5.865871 v 0.79475 c 0,0.44957 0.365674,0.81525 0.8151064,0.81525 h 0.615002 c 0.4494735,0 0.8150526,-0.36568 0.8150526,-0.81525 v -0.79477 h -3.377e-4 c 6.71e-5,-9e-4 3.377e-4,-0.002 3.377e-4,-0.003 h 5.35e-5 c 0,-0.0993 -0.080401,-0.17977 -0.1796069,-0.17977 -0.099202,0 -0.1796587,0.0804 -0.1796587,0.17977 0,8.7e-4 3.378e-4,0.002 3.378e-4,0.003 h -3.378e-4 v 0.79474 c 0,0.25143 -0.2044792,0.45605 -0.4558396,0.45605 H 6.6810288 c -0.2513596,0 -0.4559441,-0.20462 -0.4559441,-0.45605 v -0.79474 h -3.383e-4 c 0,-9e-4 3.383e-4,-0.002 3.383e-4,-0.003 0,-0.0993 -0.080402,-0.17977 -0.1796065,-0.17977 z m 2.616713,0 c -0.099288,0 -0.1797102,0.0804 -0.1797102,0.17977 v 1.8e-4 1.43338 2.3e-4 c 0,0.0991 0.08042,0.17977 0.1797102,0.17977 0.099161,0 0.1795221,-0.0805 0.1796074,-0.17968 v -0.44866 h 1.2006694 c 0.123626,0 0.303215,0.0874 0.303215,0.22325 v 0.22463 8e-4 c 0,0.0993 0.08036,0.17977 0.179601,0.17977 0.09921,0 0.179526,-0.0804 0.179616,-0.17966 v -0.22541 c 0,-0.15686 -0.05551,-0.30855 -0.189081,-0.38977 0.112232,-0.0877 0.189187,-0.25314 0.189187,-0.41584 0,-0.34304 -0.239558,-0.58249 -0.582534,-0.58249 H 8.662505 Z m 4.3637858,5e-5 c -2e-4,0 -3.4e-4,2.2e-4 -3.4e-4,2.2e-4 h -1.144043 c -0.449392,0 -0.814994,0.36555 -0.814994,0.81495 v 0.16295 c 0,0.44946 0.365646,0.81517 0.814994,0.81517 h 1.143682 c 1.97e-4,0 5.24e-4,6e-5 6.04e-4,6e-5 0.0992,0 0.179604,-0.0802 0.179604,-0.17965 -5.8e-5,-0.0992 -0.0804,-0.17959 -0.179652,-0.17959 v -7e-5 h -1.144363 c -0.21768,0 -0.399864,-0.15359 -0.444859,-0.35791 h 1.407992 c 3.39e-4,0 5.18e-4,2.2e-4 8.06e-4,2.2e-4 0.09916,0 0.179555,-0.0804 0.179555,-0.17977 0,-0.0993 -0.08036,-0.17963 -0.179555,-0.17963 h -1.29e-4 -1.408571 c 0.04499,-0.20434 0.227185,-0.3577 0.444872,-0.3577 h 1.144043 3.38e-4 c 0.0992,0 0.179553,-0.0804 0.179553,-0.17948 0,-0.0993 -0.0803,-0.17978 -0.179553,-0.17978 z m -4.1841263,0.3592 h 1.2805673 c 0.08345,0 0.223316,0.0294 0.223316,0.22335 0,0.12311 -0.100196,0.22322 -0.223316,0.22322 H 8.8418507 Z m -3.5698049,1.04209 c -0.1188931,0 -0.2154227,0.0964 -0.2154227,0.21537 0,0.11917 0.096528,0.21552 0.2154227,0.21552 0.1189786,0 0.2154222,-0.0962 0.2154222,-0.21552 0,-0.11891 -0.0964,-0.21537 -0.2154222,-0.21537 z"
         style="fill:#f6f6f6;fill-opacity:1;stroke-width:0.576296" />
    </g>
  </g>
</svg>
